<mxfile host="65bd71144e">
    <diagram id="6v2-r-Ydoae4YrpuyWav" name="第 1 页">
        <mxGraphModel dx="1051" dy="519" grid="1" gridSize="10" guides="1" tooltips="1" connect="1" arrows="1" fold="1" page="1" pageScale="1" pageWidth="827" pageHeight="1169" math="0" shadow="0">
            <root>
                <mxCell id="0"/>
                <mxCell id="1" parent="0"/>
                <mxCell id="2" value="" style="rounded=0;whiteSpace=wrap;html=1;" parent="1" vertex="1">
                    <mxGeometry x="85" y="280" width="230" height="510" as="geometry"/>
                </mxCell>
                <mxCell id="3" value="" style="rounded=0;whiteSpace=wrap;html=1;" parent="1" vertex="1">
                    <mxGeometry x="110" y="630" width="190" height="120" as="geometry"/>
                </mxCell>
                <mxCell id="5" value="ECStack（调用栈）" style="text;html=1;align=center;verticalAlign=middle;resizable=0;points=[];autosize=1;strokeColor=none;fillColor=none;" parent="1" vertex="1">
                    <mxGeometry x="60" y="240" width="120" height="20" as="geometry"/>
                </mxCell>
                <mxCell id="6" value="VO(varible Object)对象：GO" style="rounded=0;whiteSpace=wrap;html=1;" parent="1" vertex="1">
                    <mxGeometry x="130" y="650" width="160" height="35" as="geometry"/>
                </mxCell>
                <mxCell id="7" value="window&lt;br&gt;message&lt;br&gt;foo: 0xa00&lt;br&gt;bar: 0xb00" style="rounded=0;whiteSpace=wrap;html=1;align=left;" parent="1" vertex="1">
                    <mxGeometry x="700" y="440" width="170" height="120" as="geometry"/>
                </mxCell>
                <mxCell id="8" value="1.Global Object" style="text;html=1;align=center;verticalAlign=middle;resizable=0;points=[];autosize=1;strokeColor=none;fillColor=none;" parent="1" vertex="1">
                    <mxGeometry x="695" y="410" width="100" height="20" as="geometry"/>
                </mxCell>
                <mxCell id="9" value="[parent scope](父级作用域): GO&lt;br&gt;函数体：代码块" style="rounded=0;whiteSpace=wrap;html=1;align=left;" parent="1" vertex="1">
                    <mxGeometry x="700" y="630" width="190" height="110" as="geometry"/>
                </mxCell>
                <mxCell id="10" value="2.foo函数对象 0xa00" style="text;html=1;align=center;verticalAlign=middle;resizable=0;points=[];autosize=1;strokeColor=none;fillColor=none;" parent="1" vertex="1">
                    <mxGeometry x="675" y="600" width="130" height="20" as="geometry"/>
                </mxCell>
                <mxCell id="11" value="[parent scope]: GO&lt;br&gt;函数体：代码块" style="whiteSpace=wrap;html=1;align=left;" parent="1" vertex="1">
                    <mxGeometry x="415" y="620" width="180" height="120" as="geometry"/>
                </mxCell>
                <mxCell id="12" value="3.bar函数对象： 0xb00" style="text;html=1;align=center;verticalAlign=middle;resizable=0;points=[];autosize=1;strokeColor=none;fillColor=none;" parent="1" vertex="1">
                    <mxGeometry x="410" y="590" width="140" height="20" as="geometry"/>
                </mxCell>
                <mxCell id="16" value="执行代码" style="rounded=0;whiteSpace=wrap;html=1;" parent="1" vertex="1">
                    <mxGeometry x="130" y="700" width="140" height="30" as="geometry"/>
                </mxCell>
                <mxCell id="17" value="message: &quot;Hello Bar&quot;" style="whiteSpace=wrap;html=1;" parent="1" vertex="1">
                    <mxGeometry x="510" y="450" width="120" height="60" as="geometry"/>
                </mxCell>
                <mxCell id="18" value="Activitation Object&lt;br&gt;" style="text;html=1;align=center;verticalAlign=middle;resizable=0;points=[];autosize=1;strokeColor=none;fillColor=none;" parent="1" vertex="1">
                    <mxGeometry x="510" y="420" width="110" height="20" as="geometry"/>
                </mxCell>
                <mxCell id="19" value="{}" style="whiteSpace=wrap;html=1;" parent="1" vertex="1">
                    <mxGeometry x="353.5" y="450" width="120" height="60" as="geometry"/>
                </mxCell>
                <mxCell id="20" value="Activitation Object&lt;br&gt;" style="text;html=1;align=center;verticalAlign=middle;resizable=0;points=[];autosize=1;strokeColor=none;fillColor=none;" parent="1" vertex="1">
                    <mxGeometry x="350" y="420" width="110" height="20" as="geometry"/>
                </mxCell>
                <mxCell id="21" value="" style="rounded=0;whiteSpace=wrap;html=1;" parent="1" vertex="1">
                    <mxGeometry x="110" y="480" width="190" height="140" as="geometry"/>
                </mxCell>
                <mxCell id="22" value="VO对象：AO" style="rounded=0;whiteSpace=wrap;html=1;" parent="1" vertex="1">
                    <mxGeometry x="130" y="510" width="140" height="35" as="geometry"/>
                </mxCell>
                <mxCell id="25" value="执行代码&lt;br&gt;foo" style="rounded=0;whiteSpace=wrap;html=1;" parent="1" vertex="1">
                    <mxGeometry x="130" y="570" width="140" height="30" as="geometry"/>
                </mxCell>
                <mxCell id="27" value="" style="rounded=0;whiteSpace=wrap;html=1;" parent="1" vertex="1">
                    <mxGeometry x="105" y="310" width="190" height="140" as="geometry"/>
                </mxCell>
                <mxCell id="28" value="VO对象：AO" style="rounded=0;whiteSpace=wrap;html=1;" parent="1" vertex="1">
                    <mxGeometry x="120" y="330" width="140" height="35" as="geometry"/>
                </mxCell>
                <mxCell id="30" value="执行代码&lt;br&gt;console.log(message)" style="rounded=0;whiteSpace=wrap;html=1;" parent="1" vertex="1">
                    <mxGeometry x="120" y="400" width="140" height="30" as="geometry"/>
                </mxCell>
                <mxCell id="31" value="函数执行上下文（FEC）" style="text;html=1;align=center;verticalAlign=middle;resizable=0;points=[];autosize=1;strokeColor=none;fillColor=none;" parent="1" vertex="1">
                    <mxGeometry x="85" y="460" width="150" height="20" as="geometry"/>
                </mxCell>
                <mxCell id="32" value="5.foo" style="text;html=1;align=center;verticalAlign=middle;resizable=0;points=[];autosize=1;strokeColor=none;fillColor=none;" parent="1" vertex="1">
                    <mxGeometry x="380" y="400" width="40" height="20" as="geometry"/>
                </mxCell>
                <mxCell id="33" value="4.bar" style="text;html=1;align=center;verticalAlign=middle;resizable=0;points=[];autosize=1;strokeColor=none;fillColor=none;" parent="1" vertex="1">
                    <mxGeometry x="560" y="400" width="40" height="20" as="geometry"/>
                </mxCell>
            </root>
        </mxGraphModel>
    </diagram>
</mxfile>